<svg xmlns="http://www.w3.org/2000/svg" width="48" height="48"><path d="M25 37h-1v-5h-.5v-1H25zm0 0M18.5 37c-.8 0-1.5-.7-1.5-1.5v-3c0-.8.7-1.5 1.5-1.5s1.5.7 1.5 1.5v3c0 .8-.7 1.5-1.5 1.5zm0-5c-.3 0-.5.2-.5.5v3c0 .3.2.5.5.5s.5-.2.5-.5v-3c0-.3-.2-.5-.5-.5zm0 0M12.5 37c-.8 0-1.5-.7-1.5-1.5v-3c0-.8.7-1.5 1.5-1.5s1.5.7 1.5 1.5v3c0 .8-.7 1.5-1.5 1.5zm0-5c-.3 0-.5.2-.5.5v3c0 .3.2.5.5.5s.5-.2.5-.5v-3c0-.3-.2-.5-.5-.5zm0 0M30 37h-1v-5h-.5v-1H30zm0 0M34.5 37c-.8 0-1.5-.7-1.5-1.5v-3c0-.8.7-1.5 1.5-1.5s1.5.7 1.5 1.5v3c0 .8-.7 1.5-1.5 1.5zm0-5c-.3 0-.5.2-.5.5v3c0 .3.2.5.5.5s.5-.2.5-.5v-3c0-.3-.2-.5-.5-.5zm0 0" fill="#fff"/><path d="M41 45H9V3h22l10 10zm0 0" fill="#8ac8fd"/><path d="M39.5 14H30V4.5zm0 0" fill="#dff5ff"/><path d="M19 29h-1.5v-7H16v-1l3-.5zm0 0M33.5 40H32v-7h-1.5v-1l3-.5zm0 0M25 23.602c0-.704-.102-1.204-.3-1.5-.2-.301-.598-.5-1-.5-.4 0-.802.199-1 .5-.2.296-.302.796-.302 1.5v2.296c0 .704.102 1.204.301 1.5.2.301.602.5 1 .5.403 0 .801-.199 1-.5.2-.296.301-.796.301-1.5zm1.398 2.097c0 1.102-.199 1.903-.699 2.5-.5.602-1.097.801-2 .801-.8 0-1.5-.3-2-.8-.5-.598-.699-1.4-.699-2.5v-1.9c0-1.1.2-1.902.7-2.5.5-.6 1.1-.902 2-.902.8 0 1.5.301 2 .903.5.597.698 1.398.698 2.5zm0 0M32.2 23.398c0-.699-.098-1.199-.4-1.597-.3-.403-.6-.5-1-.5-.402 0-.8.199-1 .5-.198.3-.3.898-.3 1.597v2.403c0 .699.102 1.199.398 1.597.204.301.602.5 1 .5.403 0 .801-.199 1-.5.204-.296.301-.898.301-1.597zm1.402 2.204c0 1.097-.301 2-.801 2.5s-1.2.898-2 .898c-.903 0-1.5-.3-2.102-.898-.597-.602-.699-1.403-.699-2.5v-1.903c0-1.097.3-2 .8-2.5s1.2-.898 2-.898c.9 0 1.5.3 2 .898.5.602.802 1.403.802 2.5zm0 0M20.2 34.398c0-.699-.098-1.199-.4-1.597-.198-.301-.6-.5-1-.5-.402 0-.8.199-1 .5-.198.3-.3.898-.3 1.597v2.403c0 .699.102 1.199.398 1.597.204.301.602.5 1 .5.403 0 .801-.199 1-.5.204-.296.301-.898.301-1.597zm1.402 2.204c0 1.097-.301 2-.801 2.5s-1.2.898-2 .898c-.903 0-1.5-.3-2.102-.898-.597-.602-.699-1.403-.699-2.5v-1.903c0-1.097.3-2 .8-2.5s1.2-.898 2-.898c.9 0 1.5.3 2 .898.5.602.802 1.403.802 2.5zm0 0M27.602 34.398c0-.699-.102-1.199-.403-1.597-.199-.301-.597-.5-1-.5-.398 0-.8.199-1 .5-.199.3-.3.898-.3 1.597v2.403c0 .699.101 1.199.402 1.597.199.301.597.5 1 .5.398 0 .8-.199 1-.5.199-.296.3-.898.3-1.597zM29 36.602c0 1.097-.3 2-.8 2.5S27 40 26.2 40c-.9 0-1.5-.3-2.098-.898-.602-.602-.801-1.403-.801-2.5v-1.903c0-1.097.3-2 .8-2.5s1.2-.898 2-.898c.899 0 1.5.3 2 .898.5.602.797 1.403.797 2.5v1.903zm0 0" fill="#0072c3"/></svg>