<svg xmlns="http://www.w3.org/2000/svg" width="48" height="48"><path d="M38 21a3.993 3.993 0 0 1 3.887-3.988c-.13-4.227-.317-7.922-.317-7.922C25.492 10.414 9.293 13.7 9.293 13.7c-2.148.425-2.582.85-3.012 2.554 0 0-.86 3.402.43 10.633 1.293 7.234 6.039 10.215 8.176 10.215 0 0 17.515 1.648 26.683.48 0 0 .364-6.852.422-12.582A4.001 4.001 0 0 1 38 21zm0 0" fill="#ffe57f"/><path d="M15.074 35.152l-.094-.007h-.093c-.992 0-5.078-2.149-6.23-8.598-1.18-6.613-.462-9.809-.458-9.824.149-.594.239-.743.239-.754.046-.031.277-.164 1.253-.356.153-.031 14.903-3.004 29.996-4.398l1.973-.156c-.05-1.211-.09-1.97-.09-1.97C25.492 10.415 9.293 13.7 9.293 13.7c-2.152.426-2.582.852-3.012 2.555 0 0-.86 3.402.43 10.633 1.293 7.234 6.039 10.215 8.176 10.215 0 0 9.562.898 18.25.898 3.074 0 6.039-.113 8.433-.418 0 0 .04-.785.098-2.047-2.398.309-6.402.512-8.527.512-8.496 0-17.97-.887-18.067-.895zm0 0" fill="#ffb300"/><path d="M6.129 17.195c.074-.629.152-.941.152-.941.43-1.703.86-2.129 3.012-2.555 0 0 16.2-3.285 32.277-4.61 0 0-13.457-.69-16.383-.976-2.921-.285-5.476 0-6.917.45-1.442.445-6.137 2.402-6.137 2.402-6.457 2.492-6.004 6.23-6.004 6.23zm0 0" fill="#ffa000"/><path d="M26 22c0 2.21-1.79 4-4 4s-4-1.79-4-4 1.79-4 4-4 4 1.79 4 4zm0 0M35 16a1.999 1.999 0 1 1-4 0 1.999 1.999 0 1 1 4 0zm0 0M19 29.5c0 1.379-1.121 2.5-2.5 2.5a2.502 2.502 0 0 1-2.5-2.5c0-1.379 1.121-2.5 2.5-2.5s2.5 1.121 2.5 2.5zm0 0M14 21.5a1.5 1.5 0 1 1-3 0 1.5 1.5 0 0 1 3 0zm0 0M36 28a3 3 0 1 1-6.002-.002A3 3 0 0 1 36 28zm0 0" fill="#ffc400"/></svg>