<svg xmlns="http://www.w3.org/2000/svg" width="48" height="48"><path d="M18.398 5.3c.301-.198.903-.3 1.704-.3 5.898.102 24 6.2 24 10 0 4.3-12 17-16 17S16.199 7.3 18.398 5.3zm0 0" fill="#ffa000"/><path d="M32 20.3c0 2.9-1 7.098-2.5 11.302-.602.199-1 .398-1.5.398-.398 0-1-.3-1.5-.898 1.398-4 2.5-8 2.398-10.704 0-1.597-.199-2.699-1-3A7.463 7.463 0 0 0 25.5 17h-.3c-1.4 0-3.2.2-5 .5-.302-1-.598-2-.9-2.898C21.399 14.3 23.399 14 25.2 14h.3c1.5 0 2.602.2 3.5.602 2.898 1.199 3 4.5 3 5.699zm4.102-1.8c0 .8.699 1.5 1.5 1.5.796 0 1.5-.7 1.5-1.5s-.704-1.5-1.5-1.5c-.801 0-1.5.7-1.5 1.5zm-6-7.5a1.001 1.001 0 0 0 2 0c0-.602-.403-1-1-1-.602 0-1 .5-1 1zm-9.204-2.3c0 .5.403 1 1 1 .5 0 1-.4 1-1 0-.598-.398-1-1-1-.597 0-1 .5-1 1zM37.102 14c0 .5.398 1 1 1 .597 0 1-.398 1-1s-.403-1-1-1c-.602 0-1 .5-1 1zM33 24a1.001 1.001 0 0 0 2 0c0-.5-.398-1-1-1-.5 0-1 .5-1 1zm0 0" fill="#f57f17"/><path d="M4 22c.898-2.3 15.102-6.102 21.602-6 1 0 1.796.102 2.398.398.8.301 1 1.403 1 3C29.102 26.5 22.898 43 20 43 16.5 43 2.898 24.7 4 22zm0 0" fill="#ffc107"/><path d="M24 20c.602 0 1 .398 1 1s-.398 1-1 1-1-.398-1-1 .398-1 1-1zm-9 0c0 .602.398 1 1 1s1-.398 1-1-.398-1-1-1-1 .398-1 1zm-4 6c0 .602.398 1 1 1s1-.398 1-1-.398-1-1-1-1 .398-1 1zm11 .5c0 .8.7 1.5 1.5 1.5s1.5-.7 1.5-1.5-.7-1.5-1.5-1.5-1.5.7-1.5 1.5zm-9.102 5c0 .8.704 1.5 1.5 1.5.801 0 1.5-.7 1.5-1.5s-.699-1.5-1.5-1.5c-.796 0-1.5.7-1.5 1.5zM20 32a1.001 1.001 0 0 0 2 0c0-.5-.398-1-1-1-.5 0-1 .5-1 1zm-1 6a1.001 1.001 0 0 0 2 0c0-.5-.398-1-1-1-.5 0-1 .5-1 1zm-2-12.5c0 .3.2.5.5.5s.5-.2.5-.5-.2-.5-.5-.5-.5.2-.5.5zm0 0" fill="#f9a825"/></svg>